<svg width="30" height="36" viewBox="0 0 30 36" fill="none" xmlns="http://www.w3.org/2000/svg">
<path d="M28.8633 4.63672L15.5898 0.113281C15.4297 0.0585937 15.2148 0.03125 15 0.03125C14.7852 0.03125 14.5703 0.0585937 14.4102 0.113281L1.13672 4.63672C0.8125 4.74609 0.546875 5.12109 0.546875 5.46484V24.3086C0.546875 24.6523 0.769531 25.1055 1.03906 25.3203L14.5039 35.8125C14.6406 35.918 14.8164 35.9727 14.9961 35.9727C15.1758 35.9727 15.3555 35.918 15.4883 35.8125L28.9531 25.3203C29.2227 25.1094 29.4453 24.6562 29.4453 24.3086V5.46484C29.4531 5.12109 29.1875 4.75 28.8633 4.63672V4.63672ZM22.1289 11.3086L13.8242 22.7422C13.7658 22.8221 13.6894 22.8871 13.6012 22.9319C13.5129 22.9767 13.4154 23.0001 13.3164 23.0001C13.2174 23.0001 13.1199 22.9767 13.0316 22.9319C12.9434 22.8871 12.867 22.8221 12.8086 22.7422L7.87109 15.9453C7.72266 15.7383 7.87109 15.4492 8.125 15.4492H10.2813C10.4805 15.4492 10.6719 15.5469 10.7891 15.707L13.3164 19.1836L19.2109 11.0664C19.3281 10.9063 19.5156 10.8086 19.7187 10.8086H21.875C22.1289 10.8125 22.2773 11.1016 22.1289 11.3086V11.3086Z" fill="#333333"/>
</svg>
