<svg width="28" height="28" viewBox="0 0 28 28" fill="none" xmlns="http://www.w3.org/2000/svg">
<path d="M4 0C2.93913 0 1.92172 0.421427 1.17157 1.17157C0.421427 1.92172 0 2.93913 0 4V24C0 25.0609 0.421427 26.0783 1.17157 26.8284C1.92172 27.5786 2.93913 28 4 28H24C25.0609 28 26.0783 27.5786 26.8284 26.8284C27.5786 26.0783 28 25.0609 28 24V4C28 2.93913 27.5786 1.92172 26.8284 1.17157C26.0783 0.421427 25.0609 0 24 0H4ZM9 8.5C9 8.89782 8.84196 9.27936 8.56066 9.56066C8.27936 9.84196 7.89782 10 7.5 10C7.10218 10 6.72064 9.84196 6.43934 9.56066C6.15804 9.27936 6 8.89782 6 8.5C6 8.10218 6.15804 7.72064 6.43934 7.43934C6.72064 7.15804 7.10218 7 7.5 7C7.89782 7 8.27936 7.15804 8.56066 7.43934C8.84196 7.72064 9 8.10218 9 8.5ZM7.5 16C7.10218 16 6.72064 15.842 6.43934 15.5607C6.15804 15.2794 6 14.8978 6 14.5C6 14.1022 6.15804 13.7206 6.43934 13.4393C6.72064 13.158 7.10218 13 7.5 13C7.89782 13 8.27936 13.158 8.56066 13.4393C8.84196 13.7206 9 14.1022 9 14.5C9 14.8978 8.84196 15.2794 8.56066 15.5607C8.27936 15.842 7.89782 16 7.5 16ZM9 20.5C9 20.8978 8.84196 21.2794 8.56066 21.5607C8.27936 21.842 7.89782 22 7.5 22C7.10218 22 6.72064 21.842 6.43934 21.5607C6.15804 21.2794 6 20.8978 6 20.5C6 20.1022 6.15804 19.7206 6.43934 19.4393C6.72064 19.158 7.10218 19 7.5 19C7.89782 19 8.27936 19.158 8.56066 19.4393C8.84196 19.7206 9 20.1022 9 20.5V20.5ZM13 8H21C21.2652 8 21.5196 8.10536 21.7071 8.29289C21.8946 8.48043 22 8.73478 22 9C22 9.26522 21.8946 9.51957 21.7071 9.70711C21.5196 9.89464 21.2652 10 21 10H13C12.7348 10 12.4804 9.89464 12.2929 9.70711C12.1054 9.51957 12 9.26522 12 9C12 8.73478 12.1054 8.48043 12.2929 8.29289C12.4804 8.10536 12.7348 8 13 8ZM12 15C12 14.7348 12.1054 14.4804 12.2929 14.2929C12.4804 14.1054 12.7348 14 13 14H21C21.2652 14 21.5196 14.1054 21.7071 14.2929C21.8946 14.4804 22 14.7348 22 15C22 15.2652 21.8946 15.5196 21.7071 15.7071C21.5196 15.8946 21.2652 16 21 16H13C12.7348 16 12.4804 15.8946 12.2929 15.7071C12.1054 15.5196 12 15.2652 12 15ZM13 20H21C21.2652 20 21.5196 20.1054 21.7071 20.2929C21.8946 20.4804 22 20.7348 22 21C22 21.2652 21.8946 21.5196 21.7071 21.7071C21.5196 21.8946 21.2652 22 21 22H13C12.7348 22 12.4804 21.8946 12.2929 21.7071C12.1054 21.5196 12 21.2652 12 21C12 20.7348 12.1054 20.4804 12.2929 20.2929C12.4804 20.1054 12.7348 20 13 20Z" fill="#333333"/>
</svg>
