<svg width="100" height="48" viewBox="0 0 100 48" fill="none" xmlns="http://www.w3.org/2000/svg">
<path d="M65.9 0.5V14.5H66.85C72.0868 14.5889 77.0842 16.7088 80.7877 20.4123C84.4912 24.1158 86.6111 29.1132 86.7 34.35V47H100V33.95C100 15.5 85 0.5 66.55 0.5H66.25H65.9ZM28.15 0.55V3.05H32.35V14.5H35.25V3.05H39.45V0.55H28.15ZM40.5 0.55V14.5H43.4V8.25H48.85V14.5H51.75V0.55H48.85V5.85H43.4V0.55H40.5ZM53 0.55V14.5H63V12.05H55.7V8.4H62.15V5.95H55.7V3H63V0.55H53ZM19.35 16.25C17.5 16.25 12.65 17.05 12.65 23.55C12.65 30.05 17.5 30.85 19.35 30.85C21.2 30.85 26.05 30.05 26.05 23.55C26.05 17.05 21.2 16.25 19.35 16.25ZM0 16.65V30.55H2.7V20.65H2.75L8.45 30.55H11.35V16.65H8.65V26.3H8.6L3.05 16.65H0ZM27.25 16.65L27.3 30.55H30.15V25.1H33.15C35.3 25.1 35.4 25.85 35.4 27.75C35.4 29.2 35.5 29.9 35.7 30.55H38.9V30.2C38.3 30 38.3 29.5 38.3 27.45C38.3 24.85 37.7 24.4 36.55 23.9C37.9 23.45 38.7 22.15 38.7 20.6C38.7 19.4 38 16.65 34.3 16.65H27.25ZM39.4 16.65V19.1H43.65V30.55H46.55V19.1H50.75V16.65H39.4ZM51.8 16.65V30.55H54.7V24.3H60.1V30.55H63V16.65H60.1V21.9H54.7V16.65H51.8ZM65.85 16.65V30.6H66.5C71 30.6 74.6 34.25 74.6 38.7V47H84.55V34.55C84.5 24.9 76.8 17.05 67.25 16.65H66.2H65.85ZM19.35 18.75C20.9 18.75 23.1 19.7 23.1 23.6C23.1 27.5 20.9 28.45 19.35 28.45C17.8 28.45 15.55 27.5 15.55 23.6C15.55 19.7 17.8 18.75 19.35 18.75ZM30.1 19.05H33.7C35.4 19.05 35.75 20.1 35.75 20.85C35.75 22.2 35 22.75 33.5 22.75H30.1V19.05ZM45.45 32.4C41.8 32.4 38.9 34.95 38.9 39.95C38.9 44.9 41.6 47.45 45.4 47.45C49 47.45 51 45.3 51.6 42.2H48.6C48.25 43.95 47.1 44.9 45.45 44.9C42.9 44.9 41.9 42.6 41.9 40.05C41.9 36 44 35.05 45.45 35.05C47.9 35.05 48.35 36.65 48.6 37.5V37.45H51.6C51.45 35.35 49.7 32.4 45.45 32.4V32.4ZM17.55 32.75V47.05H20.5V41.05H26.8V38.5H20.5V35.3H27.7V32.75H17.55ZM31 32.75L25.9 47.05H29.05L30 44.1H35.35L36.25 47.05H39.5L34.45 32.75H31ZM52.8 32.75V47.05H63.05V44.5H55.55V40.8H62.2V38.3H55.55V35.3H63.05V32.75H52.8ZM65.9 32.8V47.1H72.55V38.8C72.55 35.5 69.85 32.8 66.55 32.8H65.9ZM32.65 36H32.7L34.45 41.65H30.8L32.65 36ZM12.15 39.8C11.6407 39.795 11.1354 39.8909 10.6633 40.082C10.1911 40.2731 9.76144 40.5557 9.39896 40.9136C9.03647 41.2714 8.74835 41.6974 8.55116 42.167C8.35398 42.6366 8.25162 43.1406 8.25 43.65C8.25 45.85 10.05 47.5 12.15 47.5C12.6567 47.5039 13.1591 47.407 13.6279 47.2148C14.0968 47.0227 14.5227 46.7393 14.881 46.381C15.2393 46.0227 15.5227 45.5968 15.7148 45.1279C15.907 44.6591 16.0039 44.1567 16 43.65C16.0039 43.1433 15.907 42.6409 15.7148 42.1721C15.5227 41.7032 15.2393 41.2773 14.881 40.919C14.5227 40.5607 14.0968 40.2773 13.6279 40.0852C13.1591 39.893 12.6567 39.7961 12.15 39.8V39.8ZM12.15 40.4C13.9 40.4 15.3 41.8 15.3 43.65C15.3 45.55 13.95 46.95 12.15 46.95C10.35 46.95 8.95 45.5 8.95 43.65C8.95 41.8 10.35 40.4 12.15 40.4ZM10.65 41.4V45.95H11.35V44H12.1L13.35 45.95H14.1L12.8 43.95C13.5 43.85 14 43.5 14 42.7C14 41.8 13.45 41.4 12.4 41.4H10.65ZM11.35 41.95H12.3C12.8 41.95 13.3 42.05 13.3 42.65C13.3 43.35 12.7 43.4 12.1 43.4H11.35V41.95Z" fill="#333333"/>
</svg>
