<svg width="100" height="28" viewBox="0 0 100 28" fill="none" xmlns="http://www.w3.org/2000/svg">
<path d="M62.4625 11.8333C73.9333 7.25 81.075 4.61667 100 0C89.7208 0.679167 66.9917 2.2375 51.325 5.29583L62.4625 11.8375M26.7958 27.05H41.7958C44.7667 22.55 47.7208 20.3583 51.1625 17.9208C48.5486 16.9101 45.9206 15.9364 43.2792 15C33.7083 19.225 28.3833 24.8958 26.8083 27.05M29.7625 10.6833C16.3875 15.4625 8.95417 20.6542 3.93333 27.05H20.4958C22.1083 24.8042 28.2542 18.3292 39.8 13.825C36.4763 12.7039 33.1283 11.6564 29.7583 10.6833M36.625 0.616666H0C36.925 7.28333 54.7208 15.8667 83.3333 28C80.8875 26.1708 41.4542 2.94583 36.6292 0.616666" fill="#333333"/>
</svg>
