<svg width="100" height="68" viewBox="0 0 100 68" fill="none" xmlns="http://www.w3.org/2000/svg">
<path d="M49.7333 58.7999C49.7333 56.1166 51.8875 53.9666 54.575 53.9666C57.2583 53.9666 59.4083 56.1166 59.4083 58.7999C59.4105 59.4355 59.287 60.0652 59.045 60.6528C58.8029 61.2405 58.447 61.7744 57.9978 62.224C57.5486 62.6736 57.015 63.0299 56.4276 63.2725C55.8401 63.5151 55.2105 63.6391 54.575 63.6375C53.9391 63.6402 53.309 63.5171 52.7209 63.2753C52.1327 63.0335 51.5983 62.6777 51.1482 62.2284C50.6982 61.7792 50.3415 61.2453 50.0987 60.6576C49.8558 60.0699 49.7317 59.44 49.7333 58.8041M69.4167 58.8041C69.4167 56.1166 71.5708 53.9625 74.2542 53.9625C76.9375 53.9625 79.0917 56.1166 79.0917 58.7999C79.0917 61.4833 76.9375 63.6375 74.2583 63.6375C73.6224 63.6402 72.9923 63.5171 72.4042 63.2753C71.8161 63.0335 71.2816 62.6777 70.8316 62.2284C70.3815 61.7792 70.0248 61.2453 69.782 60.6576C69.5392 60.0699 69.415 59.44 69.4167 58.8041M23.7917 58.8041C23.7917 56.1166 25.9458 53.9625 28.6292 53.9625C31.3125 53.9625 33.4625 56.1166 33.4625 58.7999C33.4625 61.4833 31.3125 63.6375 28.6292 63.6375C27.9936 63.6397 27.3639 63.5162 26.7763 63.2741C26.1887 63.032 25.6547 62.6762 25.2051 62.227C24.7555 61.7778 24.3992 61.2441 24.1566 60.6567C23.914 60.0692 23.79 59.4396 23.7917 58.8041M4.10833 58.8041C4.10833 56.1166 6.2625 53.9625 8.94583 53.9625C11.6292 53.9625 13.7833 56.1166 13.7833 58.7999C13.7855 59.4358 13.6619 60.0659 13.4196 60.6538C13.1773 61.2417 12.821 61.7758 12.3714 62.2255C11.9217 62.6751 11.3876 63.0314 10.7997 63.2737C10.2118 63.516 9.58172 63.6397 8.94583 63.6375C8.31065 63.6391 7.6814 63.5152 7.09425 63.2729C6.5071 63.0306 5.97362 62.6746 5.52447 62.2255C5.07533 61.7763 4.71937 61.2429 4.47706 60.6557C4.23474 60.0686 4.11085 59.4393 4.1125 58.8041M43.9042 50.2541H39.6958V67.1833H43.9042V50.2541ZM13.75 67.1833H17.9583V50.2541H13.75V51.6124C12.2831 50.5915 10.5372 50.0474 8.75 50.0541C3.90833 50.0541 0 53.9624 0 58.8041C0 63.6708 3.90833 67.5499 8.75 67.5499C10.6042 67.5499 12.325 66.9874 13.75 65.9916V67.1833V67.1833ZM79.0583 67.1833H83.2667V50.2541H79.0583V51.6124C77.5914 50.5915 75.8455 50.0474 74.0583 50.0541C69.2167 50.0541 65.3083 53.9624 65.3083 58.8041C65.3045 59.9541 65.5282 61.0934 65.9666 62.1565C66.405 63.2196 67.0495 64.1855 67.8628 64.9984C68.6761 65.8114 69.6423 66.4554 70.7056 66.8933C71.7689 67.3312 72.9084 67.5544 74.0583 67.5499C75.9125 67.5499 77.6333 66.9874 79.0583 65.9916V67.1833V67.1833ZM84.825 61.6833C84.9583 65.0999 87.875 67.5166 92.7417 67.5166C96.7208 67.5166 100 65.7916 100 61.9833C100 59.3333 98.5083 57.7749 95.0625 57.1083L92.3792 56.5833C90.6542 56.2499 89.4625 55.9166 89.4625 54.8916C89.4625 53.7666 90.6208 53.2666 92.0792 53.2666C94.2042 53.2666 95.0625 54.3291 95.1292 55.5874H99.3708C99.1375 52.2749 96.4875 50.0541 92.2125 50.0541C87.8083 50.0541 85.1875 52.4708 85.1875 55.6208C85.1875 59.4624 88.3042 60.0916 90.9875 60.5916L93.2083 60.9874C94.8 61.2874 95.4958 61.7499 95.4958 62.6791C95.4958 63.5083 94.7 64.3333 92.8083 64.3333C90.0583 64.3333 89.1667 62.9083 89.1333 61.6833H84.825V61.6833ZM33.4333 44.4875V51.6124C31.9664 50.5915 30.2205 50.0474 28.4333 50.0541C23.5917 50.0541 19.6833 53.9624 19.6833 58.8041C19.6833 63.6708 23.5917 67.5499 28.4333 67.5499C30.2833 67.5499 32.0083 66.9874 33.4333 65.9916V67.1833H37.6417V44.4875H33.4333V44.4875ZM59.375 44.4875V51.6124C57.9081 50.5915 56.1622 50.0474 54.375 50.0541C49.5375 50.0541 45.625 53.9624 45.625 58.8041C45.6211 59.9541 45.8449 61.0934 46.2833 62.1565C46.7217 63.2196 47.3661 64.1855 48.1795 64.9984C48.9928 65.8114 49.959 66.4554 51.0223 66.8933C52.0856 67.3312 53.225 67.5544 54.375 67.5499C56.2292 67.5499 57.95 66.9874 59.375 65.9916V67.1833H63.5833V44.4875H59.375V44.4875ZM10.9333 39.4875L13.7833 44.4875H33.4333L25.6458 31.0333L10.9375 39.4833L10.9333 39.4875ZM43.9042 48.6958V44.4875H59.375L42.875 15.925L28.1292 24.3749L39.6958 44.4875V48.6958H43.9042V48.6958ZM65.6417 44.4875H85.3208L59.875 0.449951L45.1625 8.93329L65.6417 44.4875V44.4875Z" fill="#333333"/>
</svg>
