<svg width="64" height="31" viewBox="0 0 64 31" fill="none" xmlns="http://www.w3.org/2000/svg">
<path fill-rule="evenodd" clip-rule="evenodd" d="M35.1668 0.546885C34.4664 0.546885 33.8984 1.1172 33.8984 1.80626V4.75079C33.8983 4.8751 33.9228 4.99821 33.9704 5.11304C34.0181 5.22786 34.0879 5.33214 34.176 5.41988C34.264 5.50762 34.3686 5.57708 34.4836 5.62429C34.5986 5.67149 34.7218 5.6955 34.8461 5.69493H62.693C62.8172 5.69524 62.9403 5.67106 63.0552 5.62376C63.1701 5.57647 63.2745 5.50699 63.3625 5.4193C63.4505 5.33161 63.5204 5.22744 63.5681 5.11273C63.6158 4.99802 63.6405 4.87503 63.6406 4.75079V1.49103C63.6407 1.36671 63.6163 1.24361 63.5686 1.12878C63.521 1.01396 63.4511 0.909678 63.3631 0.821939C63.275 0.734201 63.1705 0.664735 63.0555 0.617531C62.9405 0.570328 62.8173 0.546319 62.693 0.546885H35.1668V0.546885ZM34.8461 8.12657C34.7219 8.12626 34.5988 8.15045 34.4839 8.19774C34.369 8.24504 34.2646 8.31452 34.1766 8.4022C34.0885 8.48989 34.0187 8.59407 33.971 8.70878C33.9232 8.82348 33.8986 8.94647 33.8984 9.07071V12.3305C33.8983 12.4548 33.9228 12.5779 33.9704 12.6927C34.0181 12.8075 34.0879 12.9118 34.176 12.9996C34.264 13.0873 34.3686 13.1568 34.4836 13.204C34.5986 13.2512 34.7218 13.2752 34.8461 13.2746H62.693C62.8172 13.2749 62.9403 13.2507 63.0552 13.2034C63.1701 13.1562 63.2745 13.0867 63.3625 12.999C63.4505 12.9113 63.5204 12.8071 63.5681 12.6924C63.6158 12.5777 63.6405 12.4547 63.6406 12.3305V9.07071C63.6407 8.9464 63.6163 8.82329 63.5686 8.70847C63.521 8.59364 63.4511 8.48936 63.3631 8.40163C63.275 8.31389 63.1705 8.24442 63.0555 8.19722C62.9405 8.15001 62.8173 8.12601 62.693 8.12657H34.8461ZM34.8461 16.3383C34.7219 16.338 34.5988 16.3622 34.4839 16.4095C34.369 16.4568 34.2646 16.5262 34.1766 16.6139C34.0885 16.7016 34.0187 16.8058 33.971 16.9205C33.9232 17.0352 33.8986 17.1582 33.8984 17.2824V20.5418C33.8983 20.6661 33.9228 20.7892 33.9704 20.9041C34.0181 21.0189 34.0879 21.1232 34.176 21.2109C34.264 21.2986 34.3686 21.3681 34.4836 21.4153C34.5986 21.4625 34.7218 21.4865 34.8461 21.4859H62.693C62.8172 21.4863 62.9403 21.4621 63.0552 21.4148C63.1701 21.3675 63.2745 21.298 63.3625 21.2103C63.4505 21.1226 63.5204 21.0185 63.5681 20.9037C63.6158 20.789 63.6405 20.666 63.6406 20.5418V17.2824C63.6407 17.1581 63.6163 17.035 63.5686 16.9202C63.521 16.8054 63.4511 16.7011 63.3631 16.6133C63.275 16.5256 63.1705 16.4561 63.0555 16.4089C62.9405 16.3617 62.8173 16.3377 62.693 16.3383H34.8461ZM34.8461 24.5496C34.7219 24.5493 34.5988 24.5735 34.4839 24.6208C34.369 24.6681 34.2646 24.7376 34.1766 24.8253C34.0885 24.9129 34.0187 25.0171 33.971 25.1318C33.9232 25.2465 33.8986 25.3695 33.8984 25.4938V28.7531C33.8983 28.8775 33.9227 29.0006 33.9703 29.1155C34.0179 29.2304 34.0878 29.3347 34.1758 29.4225C34.2639 29.5103 34.3685 29.5798 34.4835 29.627C34.5985 29.6742 34.7218 29.6982 34.8461 29.6977H62.693C62.8172 29.698 62.9404 29.6738 63.0553 29.6265C63.1702 29.5791 63.2746 29.5096 63.3626 29.4219C63.4507 29.3342 63.5205 29.2299 63.5682 29.1152C63.6159 29.0004 63.6405 28.8774 63.6406 28.7531V25.4938C63.6407 25.3694 63.6163 25.2463 63.5686 25.1315C63.521 25.0167 63.4511 24.9124 63.3631 24.8247C63.275 24.7369 63.1705 24.6675 63.0555 24.6203C62.9405 24.5731 62.8173 24.5491 62.693 24.5496H34.8461ZM26.3047 29.2887C26.3046 29.4129 26.3291 29.5359 26.3766 29.6507C26.4241 29.7655 26.4938 29.8698 26.5817 29.9576C26.6696 30.0455 26.7739 30.1151 26.8887 30.1626C27.0035 30.2101 27.1265 30.2345 27.2508 30.2344H30.5164C30.6407 30.2347 30.7638 30.2104 30.8787 30.163C30.9936 30.1156 31.0979 30.046 31.1858 29.9581C31.2737 29.8702 31.3433 29.7658 31.3908 29.6509C31.4382 29.5361 31.4624 29.413 31.4621 29.2887V1.4922C31.4621 1.36799 31.4376 1.245 31.3901 1.13026C31.3425 1.01552 31.2728 0.911274 31.185 0.823483C31.0971 0.735693 30.9928 0.666079 30.878 0.618619C30.7632 0.571159 30.6402 0.546782 30.516 0.546885H27.2504C27.1261 0.546576 27.003 0.570827 26.8881 0.618243C26.7732 0.66566 26.6689 0.735307 26.581 0.823185C26.4931 0.911063 26.4235 1.01544 26.376 1.13032C26.3286 1.2452 26.3044 1.36831 26.3047 1.49259V29.2887ZM9.21875 29.2887C9.2187 29.4129 9.24314 29.5359 9.29067 29.6507C9.3382 29.7655 9.4079 29.8698 9.49577 29.9576C9.58363 30.0455 9.68796 30.1151 9.80276 30.1626C9.91757 30.2101 10.0406 30.2345 10.1648 30.2344H13.4305C13.5547 30.2347 13.6779 30.2104 13.7927 30.163C13.9076 30.1156 14.012 30.046 14.0999 29.9581C14.1878 29.8702 14.2574 29.7658 14.3048 29.6509C14.3522 29.5361 14.3765 29.413 14.3762 29.2887V1.4922C14.3762 1.36799 14.3517 1.245 14.3041 1.13026C14.2566 1.01552 14.1869 0.911274 14.099 0.823483C14.0112 0.735693 13.9069 0.666079 13.7921 0.618619C13.6773 0.571159 13.5543 0.546782 13.4301 0.546885H10.1645C10.0402 0.546576 9.91706 0.570827 9.80219 0.618243C9.68731 0.66566 9.58293 0.735307 9.49505 0.823185C9.40718 0.911063 9.33753 1.01544 9.29011 1.13032C9.2427 1.2452 9.21844 1.36831 9.21875 1.49259V29.2887V29.2887ZM5.5168 29.2887C5.51685 29.4129 5.49241 29.5359 5.44488 29.6507C5.39735 29.7655 5.32766 29.8698 5.23979 29.9576C5.15192 30.0455 5.0476 30.1151 4.93279 30.1626C4.81799 30.2101 4.69494 30.2345 4.57071 30.2344H1.30508C1.1808 30.2347 1.05769 30.2104 0.942811 30.163C0.827933 30.1156 0.723556 30.046 0.635678 29.9581C0.5478 29.8702 0.478152 29.7658 0.430735 29.6509C0.383319 29.5361 0.359069 29.413 0.359378 29.2887V1.4922C0.359378 1.36799 0.383855 1.245 0.43141 1.13026C0.478965 1.01552 0.548666 0.911274 0.636529 0.823483C0.724392 0.735693 0.828696 0.666079 0.943477 0.618619C1.05826 0.571159 1.18127 0.546782 1.30547 0.546885H4.5711C4.69538 0.546576 4.81849 0.570827 4.93337 0.618243C5.04824 0.66566 5.15262 0.735307 5.2405 0.823185C5.32838 0.911063 5.39803 1.01544 5.44544 1.13032C5.49286 1.2452 5.51711 1.36831 5.5168 1.49259V29.2887V29.2887ZM17.4453 29.2887C17.4453 29.4129 17.4697 29.5359 17.5172 29.6507C17.5648 29.7655 17.6345 29.8698 17.7223 29.9576C17.8102 30.0455 17.9145 30.1151 18.0293 30.1626C18.1441 30.2101 18.2672 30.2345 18.3914 30.2344H21.657C21.7813 30.2347 21.9044 30.2104 22.0193 30.163C22.1342 30.1156 22.2386 30.046 22.3264 29.9581C22.4143 29.8702 22.484 29.7658 22.5314 29.6509C22.5788 29.5361 22.603 29.413 22.6027 29.2887V1.4922C22.6027 1.36799 22.5783 1.245 22.5307 1.13026C22.4832 1.01552 22.4134 0.911274 22.3256 0.823483C22.2377 0.735693 22.1334 0.666079 22.0186 0.618619C21.9039 0.571159 21.7809 0.546782 21.6566 0.546885H18.391C18.2667 0.546576 18.1436 0.570827 18.0287 0.618243C17.9139 0.66566 17.8095 0.735307 17.7216 0.823185C17.6337 0.911063 17.5641 1.01544 17.5167 1.13032C17.4693 1.2452 17.445 1.36831 17.4453 1.49259V29.2887Z" fill="#333333"/>
</svg>
