<svg width="100" height="58" viewBox="0 0 100 58" fill="none" xmlns="http://www.w3.org/2000/svg">
<path fill-rule="evenodd" clip-rule="evenodd" d="M2.79796 3.12263C2.51163 3.44763 2.27921 4.06248 2.27842 4.49216L2.22647 47.3933C2.22569 47.825 2.38936 48.484 2.5921 48.8656L2.68897 49.0488C2.89131 49.4304 3.40616 49.7433 3.83975 49.748L27.7745 50.0027C28.2077 50.0074 28.8214 49.7746 29.1409 49.4879L34.2843 44.8648C34.6058 44.5758 35.2167 44.3429 35.6483 44.3445L47.9808 44.389C48.4128 44.3906 48.762 44.7414 48.7605 45.1734L48.7593 45.6172C48.7591 45.7199 48.7387 45.8216 48.6991 45.9164C48.6595 46.0113 48.6015 46.0973 48.5286 46.1697C48.4556 46.242 48.3691 46.2992 48.2739 46.338C48.1788 46.3768 48.0769 46.3964 47.9741 46.3957L43.6898 46.3781C43.4816 46.3773 43.2815 46.4588 43.1332 46.6048C42.9849 46.7509 42.9003 46.9496 42.898 47.1578L42.819 54.0773C42.8172 54.1797 42.8359 54.2813 42.8739 54.3764C42.9119 54.4714 42.9685 54.5579 43.0404 54.6307C43.1123 54.7036 43.1981 54.7614 43.2926 54.8006C43.3871 54.8399 43.4886 54.8598 43.5909 54.8593L48.003 54.8535C48.2115 54.8538 48.4119 54.9348 48.5619 55.0796C48.7119 55.2244 48.8 55.4217 48.8077 55.6301L48.8433 56.8136C48.8464 56.9156 48.8292 57.0171 48.7928 57.1124C48.7564 57.2077 48.7014 57.2947 48.631 57.3686C48.5607 57.4424 48.4764 57.5015 48.383 57.5425C48.2896 57.5835 48.189 57.6056 48.087 57.6074L36.0456 57.8554C35.6148 57.8644 35.0073 57.6375 34.6855 57.3465L29.0409 52.2386C28.7206 51.9488 28.1085 51.7125 27.68 51.7109L3.61944 51.6211C3.18819 51.6195 2.56319 51.407 2.221 51.1445L2.12803 51.073C1.78741 50.8113 1.3335 50.2972 1.11475 49.925L0.817878 49.4207C0.599128 49.048 0.421002 48.3945 0.420221 47.9687L0.319831 4.16404C0.318659 3.73474 0.478815 3.07185 0.672565 2.69294L0.777252 2.48826C0.972956 2.10505 1.36788 1.53748 1.66124 1.21873L1.92296 0.93396C2.21592 0.615991 2.8046 0.357788 3.23467 0.357007L96.2319 0.244507C96.664 0.244117 97.2804 0.466381 97.614 0.745678L97.7292 0.842163C98.0605 1.11951 98.5144 1.64334 98.7409 2.00857L99.0405 2.49138C99.2679 2.85857 99.4526 3.50623 99.4526 3.93982L99.4554 47.5383C99.4554 47.9711 99.348 48.6527 99.2132 49.0676L99.1261 49.3343C98.9921 49.7461 98.6288 50.3195 98.3116 50.6179L98.0495 50.8644C97.7335 51.1617 97.1288 51.4047 96.6976 51.4074L72.1921 51.5586C71.7612 51.5613 71.1573 51.7984 70.8351 52.0961L65.2905 57.2133C64.9718 57.5078 64.3636 57.75 63.9288 57.7547L54.2116 57.8597C54.0031 57.862 53.8021 57.7819 53.6522 57.637C53.5022 57.4921 53.4154 57.294 53.4105 57.0855L53.3526 54.3832C53.3475 54.1752 53.2615 53.9774 53.113 53.8317C52.9644 53.686 52.765 53.6039 52.5569 53.6027L47.914 53.6152C47.7074 53.6157 47.5091 53.5342 47.3626 53.3886C47.2161 53.243 47.1334 53.0452 47.1327 52.8386L47.1237 49.1953C47.1243 48.9884 47.2068 48.7902 47.3532 48.6441C47.4997 48.498 47.6981 48.416 47.905 48.416L52.5726 48.4121C52.7818 48.411 52.9825 48.3289 53.1326 48.183C53.2826 48.0371 53.3703 47.8388 53.3773 47.6297L53.446 45.1886C53.4577 44.757 53.8144 44.4074 54.2456 44.4074L64.2714 44.4062C64.7011 44.4062 65.3101 44.6379 65.6319 44.9246L70.7187 49.4523C71.0405 49.7386 71.6507 49.9703 72.0784 49.9699L95.5804 49.9347C96.0097 49.934 96.5546 49.6426 96.7968 49.2847L96.9401 49.073C97.1827 48.7148 97.3815 48.0785 97.3835 47.6414L97.5905 4.62849C97.5925 4.19607 97.3925 3.56287 97.1401 3.20896L96.8909 2.85974C96.6401 2.50818 96.0909 2.22341 95.6542 2.22419L4.26788 2.34138C3.83585 2.34138 3.25303 2.60623 2.9671 2.93084L2.79796 3.12263V3.12263Z" fill="#333333"/>
<path fill-rule="evenodd" clip-rule="evenodd" d="M23.5107 39.4265C23.0811 39.4382 22.551 39.1496 22.3271 38.7828L8.54043 16.1656C8.31621 15.798 7.82441 15.3437 7.43496 15.1476L7.69863 15.2804C7.31191 15.0859 6.65215 14.9293 6.21621 14.9308L5.98496 14.9312C5.88287 14.9321 5.78162 14.9126 5.68719 14.8738C5.59276 14.835 5.50704 14.7777 5.43508 14.7052C5.36312 14.6328 5.30638 14.5467 5.26819 14.452C5.23 14.3573 5.21113 14.256 5.2127 14.1539L5.20996 14.3597C5.21375 14.1513 5.2992 13.9526 5.44793 13.8065C5.59666 13.6604 5.79679 13.5786 6.00527 13.5785L21.9143 13.541C22.0156 13.5398 22.1162 13.5592 22.2098 13.5982C22.3034 13.6372 22.388 13.6948 22.4586 13.7676C22.5291 13.8404 22.5841 13.9268 22.6202 14.0216C22.6562 14.1163 22.6725 14.2174 22.6682 14.3187L22.6807 14.0015C22.6635 14.4324 22.3025 14.8043 21.867 14.8336L20.1307 14.9484C19.6986 14.9773 19.0662 15.2101 18.7186 15.4679L19.2842 15.048C18.9365 15.3058 18.5189 15.8406 18.3549 16.2332L18.5537 15.7578C18.3881 16.1543 18.4311 16.7804 18.6482 17.1547L26.1463 30.075C26.3643 30.45 26.7076 30.4507 26.9166 30.0707L33.4951 18.1179C33.7029 17.7406 33.9799 17.1023 34.1143 16.6922L34.0264 16.9609C34.1604 16.5507 34.0904 15.9187 33.8686 15.5468L34.074 15.891C33.8529 15.5203 33.3221 15.2031 32.8932 15.1828L30.8564 15.0863C30.4256 15.066 30.0561 14.7031 30.0314 14.2668L30.0424 14.4593C30.0359 14.3572 30.0499 14.2547 30.0836 14.158C30.1173 14.0614 30.1699 13.9724 30.2385 13.8964C30.3071 13.8203 30.3902 13.7588 30.4829 13.7153C30.5756 13.6719 30.676 13.6474 30.7783 13.6433L35.8514 13.4281C36.2822 13.4097 36.8064 13.0933 37.0232 12.7187L37.6193 11.6886C37.8357 11.3152 38.2854 10.7894 38.6162 10.5211L40.1631 9.26481C40.4971 8.99372 41.0947 8.6484 41.4971 8.49411L44.1182 7.48942C44.5209 7.33512 45.1897 7.15778 45.6193 7.09255L48.258 6.69216C48.7726 6.62105 49.2913 6.58425 49.8107 6.582L52.6736 6.60817C53.1941 6.61577 53.7142 6.63778 54.2334 6.67419L56.4361 6.83981C56.8666 6.87223 57.5525 7.00192 57.9615 7.12653L59.9869 7.74567C60.399 7.87184 61.0807 7.97302 61.517 7.97184L63.8693 7.96598C64.3021 7.96481 64.8248 7.66051 65.0381 7.28317L65.2283 6.94723C65.4412 6.57067 65.9623 6.24489 66.3963 6.21833L67.2631 6.1652C67.3638 6.15751 67.4651 6.17084 67.5604 6.20436C67.6557 6.23788 67.743 6.29084 67.8168 6.3599C67.8905 6.42895 67.9491 6.51259 67.9888 6.60549C68.0285 6.6984 68.0485 6.79854 68.0475 6.89958L68.0564 12.3898C68.0574 12.5972 68.1397 12.7959 68.2858 12.943C68.4319 13.0902 68.63 13.1741 68.8373 13.1765L91.526 13.3207C91.733 13.3223 91.931 13.4061 92.0763 13.5536C92.2216 13.7011 92.3024 13.9003 92.301 14.1074L92.2674 20.3246C92.265 20.7566 91.9158 21.0672 91.49 21.0191L91.4713 21.0172C91.0443 20.9687 90.5857 20.6007 90.4455 20.191L90.3674 19.9617C90.1925 19.4727 89.9847 18.9961 89.7455 18.5351L89.5221 18.1183C89.3182 17.7386 88.8768 17.2152 88.5389 16.9523L87.8092 16.384C87.3971 16.07 86.9687 15.778 86.526 15.509L86.3486 15.4035C85.9791 15.1847 85.3299 15.0011 84.8998 14.9933L81.2506 14.9308C81.1488 14.9288 81.0476 14.9473 80.9531 14.9851C80.8585 15.0228 80.7725 15.0792 80.7001 15.1508C80.6277 15.2224 80.5704 15.3078 80.5316 15.4019C80.4927 15.496 80.4732 15.597 80.474 15.6988L80.5592 35.9175C80.5611 36.3492 80.8553 36.8918 81.2135 37.1273L81.2607 37.1586C81.6201 37.3949 82.2506 37.6859 82.6619 37.8062L82.451 37.7445C82.8654 37.8656 83.5479 37.9644 83.9854 37.9648L85.1533 37.9656C85.5861 37.9656 85.9369 38.3172 85.9373 38.7461V38.3554C85.9374 38.5634 85.8556 38.763 85.7094 38.911C85.5633 39.0591 85.3648 39.1435 85.1568 39.1461L67.2631 39.3871C66.8318 39.3929 66.515 39.0484 66.5553 38.6195L66.5225 38.9687C66.5627 38.539 66.9455 38.1648 67.3748 38.1332L69.0873 38.0082C69.5178 37.9765 70.1732 37.7855 70.5521 37.5804L70.7342 37.4828C71.1131 37.2777 71.5193 36.7785 71.6447 36.3605C71.7693 35.9457 71.8666 35.2582 71.8627 34.8281L71.6807 15.6609C71.6788 15.4542 71.595 15.2566 71.4477 15.1116C71.3003 14.9666 71.1015 14.886 70.8947 14.8875L68.8635 14.9078C68.4338 14.9121 68.0588 15.2656 68.026 15.6941L68.0025 15.9984C67.9701 16.4281 67.5924 16.7832 67.1639 16.7906L66.476 16.8023C66.0455 16.8097 65.5338 16.5047 65.3354 16.125L64.3936 14.3238C64.1943 13.9422 63.7748 13.4 63.4537 13.109L61.1068 10.9843C60.7873 10.6953 60.217 10.2976 59.8357 10.098L58.9127 9.61481C58.4495 9.37694 57.9775 9.15648 57.4979 8.95387L56.3986 8.49958C56.0002 8.33434 55.3283 8.15661 54.9053 8.10309L53.6518 7.94489C53.1369 7.88608 52.6191 7.85712 52.101 7.85817L50.3721 7.88278C49.942 7.88903 49.2631 8.00309 48.8533 8.13864L47.7275 8.5113C47.2368 8.68029 46.7567 8.87896 46.29 9.10622L45.9072 9.2988C45.5225 9.49216 45.0314 9.95153 44.8123 10.3226L44.8029 10.3386C44.5834 10.7109 44.2311 11.3183 44.0205 11.6879L44.3076 11.184C44.0951 11.557 43.9369 12.205 43.9549 12.6379L43.9564 12.6754C43.974 13.105 44.1404 13.7675 44.3291 14.1574L44.3174 14.1332C44.5057 14.5218 44.9439 15.0379 45.2947 15.2847L46.3514 16.0277C46.7029 16.275 47.3201 16.5929 47.7252 16.7359L50.483 17.7105C50.89 17.8543 51.5533 18.0765 51.9682 18.2082L55.0021 19.1703C55.4154 19.3011 56.0861 19.5148 56.4916 19.6445L58.0393 20.1398C58.4486 20.2707 59.1154 20.4777 59.5291 20.6015L59.2814 20.5273C59.6951 20.6515 60.0275 20.4039 60.0236 19.9718L59.9787 14.1109C59.9769 14.0097 59.996 13.9093 60.0347 13.8158C60.0735 13.7223 60.1312 13.6379 60.2041 13.5677C60.2771 13.4976 60.3637 13.4433 60.4586 13.4081C60.5535 13.373 60.6546 13.3579 60.7557 13.3636L61.3584 13.389C61.7908 13.407 62.3229 13.7187 62.5502 14.0918L63.5549 15.7363C63.7807 16.1066 63.7291 16.6636 63.435 16.9855L63.4096 17.0133C63.1174 17.3332 62.7885 17.9269 62.6736 18.3449L62.3377 19.5675C62.2232 19.9832 61.8174 20.4726 61.4303 20.6613L61.9631 20.4015C61.5764 20.5898 61.0803 21.0406 61.0002 21.1718L61.2627 20.7422C61.1178 20.9797 61.3209 21.3078 61.7229 21.4785L63.685 22.3105C64.1629 22.5208 64.6261 22.7631 65.0713 23.0359L66.1963 23.7468C66.5627 23.9785 67.0846 24.4293 67.3689 24.7621L68.0174 25.5207C68.3499 25.9207 68.6552 26.3424 68.9314 26.7832L69.0635 27.0004C69.2869 27.3687 69.483 28.0195 69.501 28.4504L69.5643 29.9566C69.5818 30.4783 69.5786 31.0004 69.5545 31.5218L69.5397 31.8015C69.5162 32.2336 69.2936 32.8632 69.0373 33.2148L68.4904 33.9648C68.2365 34.3133 67.7658 34.8242 67.4369 35.1078L66.1979 36.1765C65.8697 36.4593 65.2986 36.8629 64.9244 37.0765L63.3213 37.9914C62.9455 38.2058 62.3021 38.4582 61.8775 38.5566L58.5842 39.3207C58.0742 39.4356 57.561 39.5354 57.0451 39.6199L56.1459 39.7613C55.6307 39.8358 55.1116 39.8795 54.5912 39.8922L49.635 39.95C49.2045 39.955 48.5111 39.8953 48.0904 39.8164L46.0943 39.4441C45.5832 39.3484 45.0724 39.2512 44.5619 39.1523L42.3041 38.7136C41.793 38.622 41.2761 38.5664 40.7572 38.5472L39.8307 38.5265C39.4002 38.5172 38.7471 38.68 38.3697 38.8922L38.3619 38.8965C37.9854 39.1082 37.6428 39.6258 37.6049 39.9722L37.6803 39.2793C37.6389 39.6621 37.2568 39.9894 36.8268 40.0105L36.3854 40.0324C36.2847 40.0386 36.1839 40.0239 36.0892 39.9894C35.9945 39.9548 35.908 39.9011 35.835 39.8315C35.762 39.7619 35.7042 39.6781 35.6651 39.5851C35.6261 39.4922 35.6066 39.3922 35.608 39.2914L35.6268 28.8312C35.6284 28.6233 35.7103 28.424 35.8553 28.2751C36.0004 28.1261 36.1975 28.039 36.4053 28.032L36.9705 28.0175C37.4002 28.0066 37.8557 28.3312 37.9877 28.7386L38.4482 30.1632C38.5807 30.5722 38.8721 31.198 39.1021 31.5656L39.7752 32.6398C40.0041 33.0047 40.4361 33.5484 40.7428 33.857L41.7846 34.9043C42.09 35.2117 42.6377 35.6429 43.0033 35.8652L44.9225 37.0332C45.2896 37.257 45.9283 37.5097 46.3522 37.5984L48.7385 38.0988C49.1604 38.1875 49.8494 38.255 50.2869 38.2496L53.8822 38.2066C54.3158 38.2011 55.0076 38.1257 55.4311 38.0375L57.5279 37.6004C57.9498 37.5125 58.5314 37.1882 58.8311 36.8715L60.1549 35.4722C60.4521 35.1574 60.7924 34.5699 60.9158 34.1527L61.0377 33.741C61.1604 33.3269 61.1432 32.6586 61.0018 32.255L60.7916 31.6558C60.649 31.2496 60.2662 30.6941 59.9342 30.4136L59.8436 30.3367C59.5123 30.057 58.9229 29.6925 58.5248 29.5218L56.9604 28.8507C56.48 28.6485 55.9933 28.4617 55.501 28.2906L53.0217 27.4468C52.6131 27.3082 51.9533 27.0851 51.542 26.9468L49.3225 26.2015C48.8283 26.0383 48.3304 25.8865 47.8291 25.7465L46.3799 25.3492C45.8799 25.2049 45.3896 25.0291 44.9119 24.8226L44.0232 24.4242C43.5473 24.2093 43.0746 23.9874 42.6053 23.7586L41.0744 23.0062C40.61 22.7698 40.1621 22.5022 39.7338 22.2054L39.0623 21.7265C38.7107 21.4754 38.1912 21.0105 37.9018 20.6875L38.058 20.8617C37.7686 20.539 37.3979 19.9593 37.2256 19.5562L37.4768 20.1437C37.3064 19.7453 37.3811 19.1457 37.6428 18.8054L37.3666 19.1648C37.6283 18.8238 38.1033 18.3215 38.4357 18.0359L39.1932 17.3847C39.5213 17.1027 40.115 16.7558 40.5229 16.609L40.3486 16.6715C40.84 16.4986 41.3375 16.3435 41.84 16.2066C42.258 16.0965 42.5705 15.6539 42.5393 15.2254L42.5295 15.0859C42.4982 14.6543 42.1232 14.2875 41.6928 14.2664L41.6061 14.2621C41.1752 14.241 40.6701 14.5382 40.5631 14.7535L40.8264 14.2242C40.6807 14.5164 40.2209 14.8187 39.7943 14.9L39.4686 14.9617C39.0439 15.0425 38.4342 15.3359 38.1088 15.6148L37.8779 15.8129C37.5514 16.0929 37.0947 16.6097 36.8537 16.973L36.6986 17.2066C36.4137 17.6434 36.1446 18.0903 35.892 18.5465L24.9162 38.7109C24.71 39.0898 24.1936 39.407 23.7646 39.4187L23.5107 39.4261V39.4265Z" fill="#333333"/>
</svg>
