<svg width="19" height="21" viewBox="0 0 19 21" fill="none" xmlns="http://www.w3.org/2000/svg">
<path d="M2.08822 20.9167H16.6715C17.2241 20.9167 17.754 20.6972 18.1447 20.3065C18.5354 19.9158 18.7549 19.3859 18.7549 18.8333V7.37499C18.7549 7.09872 18.6451 6.83377 18.4498 6.63842C18.2544 6.44307 17.9895 6.33332 17.7132 6.33332H14.5882V5.52395C14.5882 2.80624 12.6059 0.372904 9.90072 0.109363C9.17663 0.0373962 8.44549 0.117801 7.75435 0.345404C7.0632 0.573008 6.42735 0.942769 5.88771 1.4309C5.34807 1.91903 4.91659 2.51472 4.62102 3.17964C4.32545 3.84457 4.17234 4.564 4.17155 5.29165V6.33332H1.04655C0.770282 6.33332 0.50533 6.44307 0.30998 6.63842C0.114629 6.83377 0.00488281 7.09872 0.00488281 7.37499V18.8333C0.00488281 19.3859 0.224376 19.9158 0.615077 20.3065C1.00578 20.6972 1.53568 20.9167 2.08822 20.9167ZM14.5882 8.41665V10.5H12.5049V8.41665H14.5882ZM6.25488 5.29165C6.25488 3.56874 7.65697 2.16665 9.37988 2.16665C11.1028 2.16665 12.5049 3.56874 12.5049 5.29165V6.33332H6.25488V5.29165ZM4.17155 8.41665H6.25488V10.5H4.17155V8.41665Z" fill="white"/>
</svg>
