<svg width="25" height="25" viewBox="0 0 25 25" fill="none" xmlns="http://www.w3.org/2000/svg">
<path d="M13.9728 12.5L16.9197 9.55415C17.1152 9.35869 17.225 9.09359 17.225 8.81717C17.225 8.54075 17.1152 8.27565 16.9197 8.08019C16.7243 7.88473 16.4592 7.77492 16.1827 7.77492C15.9063 7.77492 15.6412 7.88473 15.4458 8.08019L12.4999 11.0271L9.55408 8.08019C9.35863 7.88473 9.09353 7.77492 8.81711 7.77492C8.54069 7.77492 8.27559 7.88473 8.08013 8.08019C7.88467 8.27565 7.77486 8.54075 7.77486 8.81717C7.77486 9.09359 7.88467 9.35869 8.08013 9.55415L11.027 12.5L8.08013 15.4458C7.88467 15.6413 7.77486 15.9064 7.77486 16.1828C7.77486 16.4592 7.88467 16.7243 8.08013 16.9198C8.27559 17.1152 8.54069 17.225 8.81711 17.225C9.09353 17.225 9.35863 17.1152 9.55408 16.9198L12.4999 13.9729L15.4458 16.9198C15.6412 17.1152 15.9063 17.225 16.1827 17.225C16.4592 17.225 16.7243 17.1152 16.9197 16.9198C17.1152 16.7243 17.225 16.4592 17.225 16.1828C17.225 15.9064 17.1152 15.6413 16.9197 15.4458L13.9728 12.5ZM6.24992 2.08331H18.7499C19.855 2.08331 20.9148 2.5223 21.6962 3.3037C22.4776 4.0851 22.9166 5.14491 22.9166 6.24998V18.75C22.9166 19.855 22.4776 20.9149 21.6962 21.6963C20.9148 22.4777 19.855 22.9166 18.7499 22.9166H6.24992C5.14485 22.9166 4.08504 22.4777 3.30364 21.6963C2.52224 20.9149 2.08325 19.855 2.08325 18.75V6.24998C2.08325 5.14491 2.52224 4.0851 3.30364 3.3037C4.08504 2.5223 5.14485 2.08331 6.24992 2.08331V2.08331Z" fill="white"/>
</svg>
