<svg width="26" height="25" viewBox="0 0 26 25" fill="none" xmlns="http://www.w3.org/2000/svg">
<path d="M22.3643 2.73438H4.39551C3.96338 2.73438 3.61426 3.0835 3.61426 3.51562V21.4844C3.61426 21.9165 3.96338 22.2656 4.39551 22.2656H22.3643C22.7964 22.2656 23.1455 21.9165 23.1455 21.4844V3.51562C23.1455 3.0835 22.7964 2.73438 22.3643 2.73438ZM20.1084 8.43506H18.5483C17.3252 8.43506 17.0884 9.01611 17.0884 9.87061V11.7529H20.0083L19.6274 14.6997H17.0884V22.2656H14.0439V14.7021H11.4976V11.7529H14.0439V9.58008C14.0439 7.05811 15.5845 5.68359 17.8354 5.68359C18.9146 5.68359 19.8398 5.76416 20.1108 5.80078V8.43506H20.1084Z" fill="white"/>
</svg>
