<svg width="22" height="23" viewBox="0 0 22 23" fill="none" xmlns="http://www.w3.org/2000/svg">
<path d="M19.5337 0.5625H2.34619C1.05225 0.5625 0.00244141 1.6123 0.00244141 2.90625V20.0938C0.00244141 21.3877 1.05225 22.4375 2.34619 22.4375H19.5337C20.8276 22.4375 21.8774 21.3877 21.8774 20.0938V2.90625C21.8774 1.6123 20.8276 0.5625 19.5337 0.5625ZM8.01025 16.3828C5.31006 16.3828 3.12744 14.2002 3.12744 11.5C3.12744 8.7998 5.31006 6.61719 8.01025 6.61719C9.32861 6.61719 10.4272 7.0957 11.2817 7.89648L9.9585 9.1709C9.59717 8.82422 8.96729 8.41895 8.01514 8.41895C6.3501 8.41895 4.99268 9.7959 4.99268 11.5049C4.99268 13.209 6.3501 14.5908 8.01514 14.5908C9.94873 14.5908 10.6714 13.1992 10.7886 12.4863H8.01025V10.8066H12.6196C12.6685 11.0508 12.6978 11.2998 12.6978 11.6172C12.6978 14.4053 10.8276 16.3828 8.01025 16.3828V16.3828ZM18.7524 12.3887H17.3364V13.8047H15.9106V12.3887H14.4946V10.9629H15.9106V9.54688H17.3364V10.9629H18.7524V12.3887Z" fill="white"/>
</svg>
