<svg width="26" height="25" viewBox="0 0 26 25" fill="none" xmlns="http://www.w3.org/2000/svg">
<path d="M13.3799 9.2456C11.5879 9.2456 10.1255 10.708 10.1255 12.5C10.1255 14.292 11.5879 15.7544 13.3799 15.7544C15.1719 15.7544 16.6343 14.292 16.6343 12.5C16.6343 10.708 15.1719 9.2456 13.3799 9.2456ZM23.1406 12.5C23.1406 11.1523 23.1528 9.81689 23.0771 8.47167C23.0015 6.90917 22.645 5.52245 21.5024 4.37988C20.3574 3.23486 18.9731 2.88085 17.4106 2.80517C16.063 2.72949 14.7275 2.74169 13.3823 2.74169C12.0347 2.74169 10.6992 2.72949 9.354 2.80517C7.7915 2.88085 6.40478 3.2373 5.2622 4.37988C4.11718 5.5249 3.76318 6.90917 3.68749 8.47167C3.61181 9.81933 3.62402 11.1548 3.62402 12.5C3.62402 13.8452 3.61181 15.1831 3.68749 16.5283C3.76318 18.0908 4.11962 19.4775 5.2622 20.6201C6.40722 21.7651 7.7915 22.1191 9.354 22.1948C10.7017 22.2705 12.0371 22.2583 13.3823 22.2583C14.73 22.2583 16.0654 22.2705 17.4106 22.1948C18.9731 22.1191 20.3599 21.7627 21.5024 20.6201C22.6475 19.4751 23.0015 18.0908 23.0771 16.5283C23.1553 15.1831 23.1406 13.8476 23.1406 12.5V12.5ZM13.3799 17.5073C10.6089 17.5073 8.37255 15.271 8.37255 12.5C8.37255 9.729 10.6089 7.49267 13.3799 7.49267C16.1509 7.49267 18.3872 9.729 18.3872 12.5C18.3872 15.271 16.1509 17.5073 13.3799 17.5073ZM18.5923 8.45702C17.9453 8.45702 17.4228 7.93456 17.4228 7.28759C17.4228 6.64062 17.9453 6.11816 18.5923 6.11816C19.2393 6.11816 19.7617 6.64062 19.7617 7.28759C19.7619 7.44122 19.7318 7.59337 19.6731 7.73534C19.6144 7.87731 19.5283 8.00631 19.4196 8.11494C19.311 8.22357 19.182 8.3097 19.04 8.3684C18.8981 8.4271 18.7459 8.45722 18.5923 8.45702V8.45702Z" fill="white"/>
</svg>
