<svg width="26" height="25" viewBox="0 0 26 25" fill="none" xmlns="http://www.w3.org/2000/svg">
<path d="M12.3382 14.5833C12.7486 14.5833 13.155 14.5025 13.5341 14.3455C13.9132 14.1884 14.2577 13.9582 14.5479 13.668C14.8381 13.3779 15.0683 13.0334 15.2253 12.6542C15.3824 12.2751 15.4632 11.8687 15.4632 11.4583C15.4632 11.048 15.3824 10.6416 15.2253 10.2624C15.0683 9.8833 14.8381 9.53881 14.5479 9.24862C14.2577 8.95844 13.9132 8.72826 13.5341 8.57121C13.155 8.41416 12.7486 8.33333 12.3382 8.33333C11.5094 8.33333 10.7146 8.66257 10.1285 9.24862C9.54246 9.83468 9.21322 10.6295 9.21322 11.4583C9.21322 12.2871 9.54246 13.082 10.1285 13.668C10.7146 14.2541 11.5094 14.5833 12.3382 14.5833V14.5833ZM4.00488 6.51042C4.00488 5.61255 4.36156 4.75145 4.99645 4.11657C5.63134 3.48168 6.49243 3.125 7.3903 3.125H19.3695C20.2673 3.125 21.1284 3.48168 21.7633 4.11657C22.3982 4.75145 22.7549 5.61255 22.7549 6.51042V18.4896C22.7549 19.3875 22.3982 20.2485 21.7633 20.8834C21.1284 21.5183 20.2673 21.875 19.3695 21.875H7.3903C6.49243 21.875 5.63134 21.5183 4.99645 20.8834C4.36156 20.2485 4.00488 19.3875 4.00488 18.4896V6.51042ZM12.3382 16.1458C13.3117 16.1472 14.2612 15.8442 15.0538 15.2792L17.7757 18C17.8472 18.0768 17.9335 18.1383 18.0293 18.181C18.1252 18.2237 18.2286 18.2467 18.3335 18.2485C18.4384 18.2504 18.5426 18.2311 18.6399 18.1918C18.7372 18.1525 18.8255 18.094 18.8997 18.0198C18.9739 17.9456 19.0324 17.8573 19.0717 17.76C19.111 17.6627 19.1303 17.5585 19.1284 17.4536C19.1266 17.3487 19.1036 17.2453 19.0609 17.1494C19.0182 17.0536 18.9566 16.9674 18.8799 16.8958L16.159 14.174C16.7678 13.3175 17.0711 12.2812 17.0203 11.2317C16.9695 10.1821 16.5675 9.18002 15.8789 8.38633C15.1902 7.59264 14.2548 7.05336 13.2229 6.85506C12.191 6.65676 11.1224 6.81094 10.1886 7.29285C9.25478 7.77476 8.51 8.55645 8.07379 9.51244C7.63757 10.4684 7.53523 11.5433 7.78317 12.5644C8.03112 13.5855 8.61498 14.4937 9.44103 15.1432C10.2671 15.7927 11.2874 16.1458 12.3382 16.1458V16.1458Z" fill="white"/>
</svg>
