<svg width="26" height="25" viewBox="0 0 26 25" fill="none" xmlns="http://www.w3.org/2000/svg">
<path d="M22.3643 2.73438H4.39551C3.96338 2.73438 3.61426 3.0835 3.61426 3.51562V21.4844C3.61426 21.9165 3.96338 22.2656 4.39551 22.2656H22.3643C22.7964 22.2656 23.1455 21.9165 23.1455 21.4844V3.51562C23.1455 3.0835 22.7964 2.73438 22.3643 2.73438ZM18.6362 9.80713C18.6436 9.92188 18.6436 10.0415 18.6436 10.1587C18.6436 13.7427 15.9141 17.8711 10.9263 17.8711C9.38818 17.8711 7.9624 17.4243 6.76123 16.6553C6.98096 16.6797 7.19092 16.6895 7.41553 16.6895C8.68506 16.6895 9.85205 16.2598 10.7822 15.5322C9.59082 15.5078 8.58984 14.7266 8.24805 13.6523C8.66553 13.7134 9.0415 13.7134 9.47119 13.6035C8.85773 13.4789 8.30634 13.1457 7.91068 12.6606C7.51503 12.1755 7.29953 11.5684 7.30078 10.9424V10.9082C7.65967 11.1108 8.08203 11.2354 8.52393 11.2524C8.15245 11.0049 7.8478 10.6695 7.63699 10.276C7.42618 9.88244 7.31573 9.443 7.31543 8.99658C7.31543 8.49121 7.44727 8.02979 7.68408 7.62939C8.365 8.46762 9.21467 9.15318 10.1779 9.64152C11.1411 10.1299 12.1963 10.41 13.2749 10.4639C12.8916 8.62061 14.2686 7.12891 15.9238 7.12891C16.7051 7.12891 17.4082 7.45605 17.9038 7.9834C18.5166 7.86865 19.1025 7.63916 19.625 7.33154C19.4224 7.95898 18.9976 8.48877 18.4336 8.82324C18.9805 8.76465 19.5078 8.61328 19.9961 8.40088C19.6274 8.94287 19.166 9.42383 18.6362 9.80713V9.80713Z" fill="white"/>
</svg>
